<svg id="plus_1_" data-name="plus (1)" xmlns="http://www.w3.org/2000/svg" width="17.333" height="17.333" viewBox="0 0 17.333 17.333">
  <path id="Path_315" data-name="Path 315" d="M8.667,17.333a8.667,8.667,0,1,1,8.667-8.667A8.676,8.676,0,0,1,8.667,17.333Zm0-16.25A7.583,7.583,0,1,0,16.25,8.667,7.592,7.592,0,0,0,8.667,1.083Zm0,0" fill="#5d8efe"/>
  <path id="Path_316" data-name="Path 316" d="M136.125,241.083h-7.583a.542.542,0,0,1,0-1.083h7.583a.542.542,0,1,1,0,1.083Zm0,0" transform="translate(-123.667 -231.875)" fill="#5d8efe"/>
  <path id="Path_317" data-name="Path 317" d="M240.542,136.667a.542.542,0,0,1-.542-.542v-7.583a.542.542,0,0,1,1.083,0v7.583A.542.542,0,0,1,240.542,136.667Zm0,0" transform="translate(-231.875 -123.667)" fill="#5d8efe"/>
</svg>
