<svg id="diesel" xmlns="http://www.w3.org/2000/svg" width="25.581" height="36.045" viewBox="0 0 25.581 36.045">
  <path id="Path_324" data-name="Path 324" d="M21.511,4.651H9.3V3.488h.581a.581.581,0,0,0,.581-.581V.581A.581.581,0,0,0,9.883,0H1.744a.581.581,0,0,0-.581.581V2.907a.581.581,0,0,0,.581.581h.581V5.049A4.071,4.071,0,0,0,0,8.721V31.976a4.075,4.075,0,0,0,4.07,4.07H21.511a4.075,4.075,0,0,0,4.07-4.07V8.721A4.075,4.075,0,0,0,21.511,4.651Zm2.907,4.07v9.061l-2.326-2.326V9.883a1.746,1.746,0,0,0-1.744-1.744H14.775L12.45,5.814h9.061A2.91,2.91,0,0,1,24.418,8.721ZM20.93,14.294,15.938,9.3h4.41a.582.582,0,0,1,.581.581ZM2.326,1.163H9.3V2.326H2.326ZM3.488,3.488H8.139V4.651H4.07a4.1,4.1,0,0,0-.581.047ZM21.511,34.883H4.07a2.91,2.91,0,0,1-2.907-2.907V8.721A2.91,2.91,0,0,1,4.07,5.814h6.736L24.418,19.426v12.55A2.91,2.91,0,0,1,21.511,34.883Zm0,0" fill="#5d8efe"/>
  <path id="Path_325" data-name="Path 325" d="M39.969,96.17a.579.579,0,0,0-.411-.17H34.326A2.328,2.328,0,0,0,32,98.326v22.093a2.328,2.328,0,0,0,2.326,2.326H50.6a2.328,2.328,0,0,0,2.326-2.326V109.372a.579.579,0,0,0-.17-.411Zm11.8,24.248a1.164,1.164,0,0,1-1.163,1.163H34.326a1.164,1.164,0,0,1-1.163-1.163V98.326a1.164,1.164,0,0,1,1.163-1.163h4.992l12.45,12.45Zm0,0" transform="translate(-29.674 -89.023)" fill="#5d8efe"/>
  <path id="Path_326" data-name="Path 326" d="M112,248.861a4.148,4.148,0,0,0,3.578,4.187,4.249,4.249,0,0,0,.483.028,4.069,4.069,0,0,0,4.079-4.069v-.146a6.864,6.864,0,0,0-.836-3.279l-2.723-4.992a.6.6,0,0,0-1.021,0l-2.723,4.992A6.868,6.868,0,0,0,112,248.861Zm1.857-2.723,2.213-4.056,2.213,4.057a5.7,5.7,0,0,1,.694,2.722v.146a2.909,2.909,0,0,1-3.263,2.886,3.023,3.023,0,0,1-2.551-3.032A5.7,5.7,0,0,1,113.857,246.139Zm0,0" transform="translate(-103.861 -222.846)" fill="#5d8efe"/>
  <path id="Path_327" data-name="Path 327" d="M170.326,360h-1.163A1.164,1.164,0,0,1,168,361.163v1.163A2.328,2.328,0,0,0,170.326,360Zm0,0" transform="translate(-155.791 -333.838)" fill="#5d8efe"/>
</svg>
