<svg id="gas-station" xmlns="http://www.w3.org/2000/svg" width="31.5" height="36" viewBox="0 0 31.5 36">
  <path id="Path_268" data-name="Path 268" d="M158.219,66H146.031A2.034,2.034,0,0,1,144,63.969V58.031A2.034,2.034,0,0,1,146.031,56h12.188a2.034,2.034,0,0,1,2.031,2.031v5.938A2.034,2.034,0,0,1,158.219,66ZM146.5,63.5h11.25v-5H146.5Zm11.719-5h0Z" transform="translate(-136.883 -51.625)" fill="#5d8efe"/>
  <path id="Path_269" data-name="Path 269" d="M181.625,222.375A5.631,5.631,0,0,1,176,216.75c0-1.28.789-3.036,2.411-5.37,1.118-1.607,2.22-2.892,2.266-2.946a1.25,1.25,0,0,1,1.9,0c.046.054,1.149,1.338,2.266,2.946,1.622,2.333,2.411,4.09,2.411,5.37A5.631,5.631,0,0,1,181.625,222.375Zm0-11.147c-1.493,1.922-3.125,4.433-3.125,5.522a3.125,3.125,0,0,0,6.25,0C184.75,215.659,183.118,213.149,181.625,211.228Z" transform="translate(-166.408 -194.287)" fill="#5d8efe"/>
  <path id="Path_270" data-name="Path 270" d="M61.94,23.323a8.106,8.106,0,0,0,1.56-4.8V9a1.125,1.125,0,0,0-.622-1.006L59,6.055V3.234A3.238,3.238,0,0,0,55.766,0H38.609a3.238,3.238,0,0,0-3.234,3.234V29.25H33.828A1.83,1.83,0,0,0,32,31.078v3.094A1.83,1.83,0,0,0,33.828,36H60.547a1.83,1.83,0,0,0,1.828-1.828V31.078a1.83,1.83,0,0,0-1.828-1.828H59V27.366ZM61.25,9.7v8.831A5.871,5.871,0,0,1,60.12,22L59,23.54V8.57ZM60.125,33.75H34.25V31.5H60.125Zm-22.5-4.5V3.234a.985.985,0,0,1,.984-.984H55.766a.985.985,0,0,1,.984.984V29.25Z" transform="translate(-32 0)" fill="#5d8efe"/>
</svg>
