<svg id="hamburger" xmlns="http://www.w3.org/2000/svg" width="43.941" height="36.045" viewBox="0 0 43.941 36.045">
  <g id="Group_1918" data-name="Group 1918" transform="translate(29.695 8.582)">
    <g id="Group_1917" data-name="Group 1917" transform="translate(0 0)">
      <path id="Path_328" data-name="Path 328" d="M349.181,146.251a.859.859,0,0,0-1.214,0l-1.716,1.716a.858.858,0,1,0,1.214,1.214l1.716-1.716A.858.858,0,0,0,349.181,146.251Z" transform="translate(-345.999 -146)" fill="#5d8efe"/>
    </g>
  </g>
  <g id="Group_1920" data-name="Group 1920" transform="translate(9.097 8.582)">
    <g id="Group_1919" data-name="Group 1919" transform="translate(0 0)">
      <path id="Path_329" data-name="Path 329" d="M109.181,146.251a.859.859,0,0,0-1.214,0l-1.716,1.716a.858.858,0,1,0,1.214,1.214l1.716-1.716A.858.858,0,0,0,109.181,146.251Z" transform="translate(-105.999 -146)" fill="#5d8efe"/>
    </g>
  </g>
  <g id="Group_1922" data-name="Group 1922" transform="translate(25.404 5.149)">
    <g id="Group_1921" data-name="Group 1921" transform="translate(0 0)">
      <path id="Path_330" data-name="Path 330" d="M299.181,106.251a.859.859,0,0,0-1.214,0l-1.716,1.716a.858.858,0,0,0,1.214,1.214l1.716-1.716A.858.858,0,0,0,299.181,106.251Z" transform="translate(-295.999 -106)" fill="#5d8efe"/>
    </g>
  </g>
  <g id="Group_1924" data-name="Group 1924" transform="translate(15.105 5.149)">
    <g id="Group_1923" data-name="Group 1923" transform="translate(0 0)">
      <path id="Path_331" data-name="Path 331" d="M179.181,106.251a.859.859,0,0,0-1.214,0l-1.716,1.716a.858.858,0,0,0,1.214,1.214l1.716-1.716A.858.858,0,0,0,179.181,106.251Z" transform="translate(-175.999 -106)" fill="#5d8efe"/>
    </g>
  </g>
  <g id="Group_1926" data-name="Group 1926" transform="translate(19.396 8.582)">
    <g id="Group_1925" data-name="Group 1925" transform="translate(0 0)">
      <path id="Path_332" data-name="Path 332" d="M229.181,146.251a.858.858,0,0,0-1.214,0l-1.716,1.716a.858.858,0,1,0,1.214,1.214l1.716-1.716A.858.858,0,0,0,229.181,146.251Z" transform="translate(-225.999 -146)" fill="#5d8efe"/>
    </g>
  </g>
  <g id="Group_1928" data-name="Group 1928" transform="translate(0 0)">
    <g id="Group_1927" data-name="Group 1927" transform="translate(0 0)">
      <path id="Path_333" data-name="Path 333" d="M43.941,72.605a2.578,2.578,0,0,0-2.575-2.575h-.858V67.264c.035-.031.071-.06.106-.092a4.36,4.36,0,0,1,2.479-.842.858.858,0,0,0-.011-1.716h-.011a6.55,6.55,0,0,0-2.564.606v-2.25a2.571,2.571,0,0,0,1.591-2.7A16.319,16.319,0,0,0,25.919,46h-7.9A16.319,16.319,0,0,0,1.842,60.272a2.571,2.571,0,0,0,1.591,2.7v2.212a6.431,6.431,0,0,0-2.586-.568A.858.858,0,0,0,.858,66.33H.87a4.27,4.27,0,0,1,2.54.839l.024.021v2.84H2.575a2.574,2.574,0,0,0-.422,5.114A2.44,2.44,0,0,0,2.123,76.8a7.723,7.723,0,0,0,7.317,5.244H34.5A7.723,7.723,0,0,0,41.818,76.8a2.44,2.44,0,0,0-.029-1.657A2.575,2.575,0,0,0,43.941,72.605Zm-40.4-12.12A14.6,14.6,0,0,1,18.023,47.716h7.9A14.6,14.6,0,0,1,40.4,60.485a.867.867,0,0,1-.8.96h-.017l-.044,0H4.41A.869.869,0,0,1,3.546,60.485ZM35.465,65.9a4.5,4.5,0,0,0-6.306,0,2.787,2.787,0,0,1-3.993,0,4.5,4.5,0,0,0-6.306,0,2.787,2.787,0,0,1-3.993,0,4.5,4.5,0,0,0-6.306,0,2.738,2.738,0,0,1-3.412.434V63.165H38.792v3.223A2.748,2.748,0,0,1,35.465,65.9Zm3.327,2.345V70.03H5.149V68.223a4.319,4.319,0,0,0,1.416.241,4.668,4.668,0,0,0,3.153-1.292,2.787,2.787,0,0,1,3.993,0,4.5,4.5,0,0,0,6.306,0,2.787,2.787,0,0,1,3.993,0,4.5,4.5,0,0,0,6.306,0,2.787,2.787,0,0,1,3.993,0A4.51,4.51,0,0,0,38.792,68.249Zm1.4,8A6.007,6.007,0,0,1,34.5,80.329H9.441a6.007,6.007,0,0,1-5.692-4.078.85.85,0,0,1,.839-1.071H39.353A.85.85,0,0,1,40.193,76.251Zm1.174-2.787H2.575a.858.858,0,0,1,0-1.716H41.367a.858.858,0,1,1,0,1.716Z" transform="translate(0 -46)" fill="#5d8efe"/>
    </g>
  </g>
</svg>
