<svg id="hot-dog-hand-drawn-food-outline" xmlns="http://www.w3.org/2000/svg" width="42.855" height="36.046" viewBox="0 0 42.855 36.046">
  <g id="Group_1929" data-name="Group 1929" transform="translate(0 0)">
    <path id="Path_334" data-name="Path 334" d="M41.481,219.847c-1.552-.975-3.47-.116-4.945.565-1.493-2.753-4.376-3.411-7.206-2.327a1.006,1.006,0,0,0-.262.047,35.763,35.763,0,0,1-11.644,1.336c-1.98-.033-3.958-.131-5.938-.178-2.83-.068-6.786-.164-6.41,3.87q-1.15-.2-2.282-.429c-2.284-.463-2.827,1.636-2.792,3.4.056,2.845,2.2,3.465,4.368,4.781.308.176-.059,2.348.059,2.795.892,3.4,6.148,3.578,8.9,4.016a52.729,52.729,0,0,0,12.005.471,29,29,0,0,0,9.654-2.185c2.962-1.3,7.3-4.115,5.562-7.927-.019-.043,1.718-2.656,1.887-3.127a5,5,0,0,0-.161-4.354A2.712,2.712,0,0,0,41.481,219.847Zm-33.463,1.4,0,0c7.175-.147,14.338,1.033,21.322-1.14a.944.944,0,0,0,.378-.072c2.009-.808,3.851-.687,4.992,1.162-8.627,3.433-18.5,3.64-27.691,2.278a1.259,1.259,0,0,0,0-.448A1.531,1.531,0,0,1,8.019,221.247Zm30.737,9.177a6.606,6.606,0,0,1-2.437,2.739c-3.483,2.441-8.352,2.95-12.492,3.152a54.691,54.691,0,0,1-13.644-1.174c-1.35-.275-3.489-.654-3.963-2.221-1.1-3.642,6.166-2.041,7.743-1.975a64.78,64.78,0,0,0,12.227-.458,54.855,54.855,0,0,0,8.867-2.281c1.06-.342,3.213-.2,3.69,1A1.737,1.737,0,0,1,38.756,230.424Zm1.99-7.134a7.472,7.472,0,0,1-1.457,3.244,5.784,5.784,0,0,0-3.127-.817.9.9,0,0,0-.682.267.941.941,0,0,0-.105.031c-8.934,3.629-18.156,3.342-27.59,2.592a1.028,1.028,0,0,0-.268.016,1.212,1.212,0,0,0-.256.02,4.439,4.439,0,0,0-1.46.551,1.088,1.088,0,0,0-.248-.061,4.3,4.3,0,0,1-3.45-2.274c-1.437-3.27,3.161-1.664,4.732-1.435a.729.729,0,0,0,.1.2,15.321,15.321,0,0,0,1.205,1.644.985.985,0,1,0,1.393-1.394c-.01-.01-.058-.065-.1-.114q1.632.183,3.281.293a3.03,3.03,0,0,0,1.144,1.5A.989.989,0,0,0,15.2,227.2a.944.944,0,0,0-.038-1.023c1.874.059,3.75.035,5.619-.074a.907.907,0,0,0,.429.531c.054.029.105.059.156.093l.011.007.034.028c.089.076.173.16.257.243a.983.983,0,0,0,1.591-1.1q1.792-.185,3.562-.494a1.2,1.2,0,0,0,.3.3c.024.021.049.042.073.065a2.766,2.766,0,0,1,.23.25l.064.089c.068.1.134.2.2.294a1,1,0,0,0,1.348.353.99.99,0,0,0,.353-1.348c-.1-.157-.211-.307-.321-.453q1.893-.424,3.74-1.012c.01.01.016.021.025.031.377.37.806.681,1.183,1.051a.985.985,0,0,0,1.393-1.394c-.154-.151-.319-.29-.483-.429a37.988,37.988,0,0,0,4.338-1.955C40.588,221.314,40.9,222.221,40.746,223.29Z" transform="translate(0 -202.294)" fill="#5d8efe"/>
    <path id="Path_335" data-name="Path 335" d="M138.518,392.556a.986.986,0,0,0,0,1.971A.986.986,0,0,0,138.518,392.556Z" transform="translate(-125.742 -362.223)" fill="#5d8efe"/>
    <path id="Path_336" data-name="Path 336" d="M221.061,403.869a.986.986,0,0,0,0,1.971A.986.986,0,0,0,221.061,403.869Z" transform="translate(-201.191 -372.564)" fill="#5d8efe"/>
    <path id="Path_337" data-name="Path 337" d="M306.668,397.756a.986.986,0,0,0,0,1.971A.986.986,0,0,0,306.668,397.756Z" transform="translate(-279.44 -366.976)" fill="#5d8efe"/>
    <path id="Path_338" data-name="Path 338" d="M386.149,373.3a.986.986,0,0,0,0,1.971A.986.986,0,0,0,386.149,373.3Z" transform="translate(-352.09 -344.618)" fill="#5d8efe"/>
    <path id="Path_339" data-name="Path 339" d="M125.275,48.986c.58,1.418-.268,2.522-1.268,3.479-.808.774.418,2,1.225,1.225,1.762-1.685,2.475-3.573,1.417-5.85-1.115-2.4-3.187-4.095-1.743-6.911.508-.991-.986-1.868-1.5-.874a6.088,6.088,0,0,0,.286,6.252A23.011,23.011,0,0,1,125.275,48.986Z" transform="translate(-112.135 -39.618)" fill="#5d8efe"/>
    <path id="Path_340" data-name="Path 340" d="M265.671,48.986c.58,1.418-.268,2.522-1.268,3.479-.809.774.419,2,1.225,1.225,1.762-1.685,2.474-3.573,1.417-5.85-1.115-2.4-3.187-4.095-1.743-6.911.508-.991-.986-1.868-1.5-.874a6.089,6.089,0,0,0,.286,6.252A22.925,22.925,0,0,1,265.671,48.986Z" transform="translate(-240.465 -39.618)" fill="#5d8efe"/>
  </g>
</svg>
