<svg id="liquor" xmlns="http://www.w3.org/2000/svg" width="23.051" height="36.022" viewBox="0 0 23.051 36.022">
  <g id="Group_1931" data-name="Group 1931" transform="translate(9.587 17.483)">
    <g id="Group_1930" data-name="Group 1930" transform="translate(0)">
      <path id="Path_341" data-name="Path 341" d="M241.911,250.706a6.743,6.743,0,0,0-.254-1.836.529.529,0,0,0-.509-.385h-1.975a.529.529,0,1,0,0,1.057h1.561a5.675,5.675,0,1,1-11.111,0h7.294a.529.529,0,0,0,0-1.057h-7.709a.529.529,0,0,0-.509.385,6.738,6.738,0,0,0,5.953,8.548.533.533,0,0,0,0,.056v7.032l-2.563,1.538a.529.529,0,0,0,.272.982H238a.529.529,0,0,0,.272-.982l-2.563-1.538v-7.032a.534.534,0,0,0,0-.056A6.741,6.741,0,0,0,241.911,250.706Zm-5.821,15.262h-1.822l.911-.547Z" transform="translate(-228.447 -248.485)" fill="#5d8efe"/>
    </g>
  </g>
  <g id="Group_1933" data-name="Group 1933" transform="translate(11.279 19.174)">
    <g id="Group_1932" data-name="Group 1932" transform="translate(0)">
      <path id="Path_342" data-name="Path 342" d="M262.046,272.532h-9.023a.529.529,0,0,0-.529.529,5.04,5.04,0,0,0,10.081,0A.529.529,0,0,0,262.046,272.532Zm-4.512,4.512a3.989,3.989,0,0,1-3.948-3.454h7.9A3.989,3.989,0,0,1,257.534,277.044Z" transform="translate(-252.494 -272.532)" fill="#5d8efe"/>
    </g>
  </g>
  <g id="Group_1935" data-name="Group 1935">
    <g id="Group_1934" data-name="Group 1934" transform="translate(0)">
      <path id="Path_343" data-name="Path 343" d="M103.987,17.036a.529.529,0,0,0,.529-.529v-.752a4.542,4.542,0,0,0-1.519-3.6c-.388-.312-1.38-.919-1.865-1.21V4.8l.836-.418a.529.529,0,0,0,.292-.473V.529A.529.529,0,0,0,101.731,0H94.964a.529.529,0,0,0-.529.529V3.912a.529.529,0,0,0,.292.473l.836.418v6.14c-.485.291-1.477.9-1.865,1.21a4.542,4.542,0,0,0-1.519,3.6V33.238a2.788,2.788,0,0,0,2.785,2.785h6.767a2.788,2.788,0,0,0,2.785-2.785V25.7a.529.529,0,0,0-1.057,0v.247h-1.493a.529.529,0,0,0-.451.253,4.2,4.2,0,0,1-6.335,0,.529.529,0,0,0-.451-.253H93.237v-1.2h1.493a.529.529,0,0,0,.451-.253,4.2,4.2,0,0,1,6.335,0,.529.529,0,0,0,.451.253h.611a.529.529,0,1,0,0-1.057h-.333a5.333,5.333,0,0,0-7.793,0H93.237V20.232h7.672a.529.529,0,1,0,0-1.057H93.237V15.755a3.5,3.5,0,0,1,1.124-2.778c.367-.3,1.568-1.023,2-1.278a.529.529,0,0,0,.26-.455V10.081h3.454v1.163a.529.529,0,0,0,.26.455c.432.255,1.633.983,2,1.278a3.5,3.5,0,0,1,1.124,2.778v.752A.529.529,0,0,0,103.987,17.036Zm-.529,16.2a1.729,1.729,0,0,1-1.727,1.727H94.964a1.729,1.729,0,0,1-1.727-1.727V31.511h10.222ZM94.451,27a5.333,5.333,0,0,0,7.793,0h1.214v3.454H93.237V27Zm5.624-22.523V9.023H96.62V4.476A.529.529,0,0,0,96.328,4l-.836-.418V1.057h5.71V3.586L100.367,4A.529.529,0,0,0,100.075,4.476Z" transform="translate(-92.179)" fill="#5d8efe"/>
    </g>
  </g>
</svg>
