<svg id="pizza" xmlns="http://www.w3.org/2000/svg" width="35.806" height="36.045" viewBox="0 0 35.806 36.045">
  <path id="Path_344" data-name="Path 344" d="M288.2,11.1A17.262,17.262,0,0,0,276.913.041.889.889,0,0,0,275.8.655l-2.644,9.855a.529.529,0,0,0,1.022.274l1.862-6.938a14.265,14.265,0,0,1,8.527,8.371l-5.107,1.875a2.61,2.61,0,0,0-4.812,1.766l-2.031.746.921-3.431a.529.529,0,0,0-1.022-.274l-1.009,3.759a.888.888,0,0,0,1.156,1.057l15-5.506A.879.879,0,0,0,288.2,11.1ZM276.315,2.82l.46-1.713a16.185,16.185,0,0,1,10.361,10.168l-1.575.578a15.329,15.329,0,0,0-9.246-9.033ZM276.648,14a1.56,1.56,0,0,1,1.787.468l-2.762,1.014A1.558,1.558,0,0,1,276.648,14Z" transform="translate(-252.435 0)" fill="#5d8efe"/>
  <path id="Path_345" data-name="Path 345" d="M35.671,36.042a.882.882,0,0,0-1.163-.624l-6.4,2.349-3.242,1.19,0,0-2.573.944a.529.529,0,1,0,.365.994l2.125-.78a2.6,2.6,0,0,0,3.178,1.075,2.62,2.62,0,0,0,1.631-2.84l2.435-.894A13.336,13.336,0,1,1,21.507,26.936l-3.84,14.311A.881.881,0,0,0,18.823,42.3l1.514-.556a.529.529,0,1,0-.365-.994l-1.195.439L23.311,24.3a.889.889,0,0,0-.662-1.09,17.28,17.28,0,0,0-12.222,1.829.529.529,0,1,0,.523.921,15.979,15.979,0,0,1,7.344-2.085,16.228,16.228,0,0,1,3.948.33l-.458,1.707A14.39,14.39,0,1,0,33.031,37.088l1.654-.607a16.288,16.288,0,0,1,.378,2.919A16.159,16.159,0,0,1,2.769,40.646,16.217,16.217,0,0,1,8.962,27.291a.529.529,0,0,0-.653-.833,17.2,17.2,0,0,0-6.6,14.229A17.218,17.218,0,0,0,18.9,57.24c.226,0,.453,0,.681-.013A17.218,17.218,0,0,0,36.121,39.358a17.335,17.335,0,0,0-.451-3.316Zm-8.1,4.163h0a1.554,1.554,0,0,1-1.767-.466l2.756-1.012a1.557,1.557,0,0,1-.988,1.477Z" transform="translate(-1.698 -21.195)" fill="#5d8efe"/>
  <path id="Path_346" data-name="Path 346" d="M179.332,105.481A2.329,2.329,0,1,0,177,103.153,2.331,2.331,0,0,0,179.332,105.481Zm0-3.6a1.27,1.27,0,1,1-1.27,1.27A1.272,1.272,0,0,1,179.332,101.882Z" transform="translate(-164.633 -93.709)" fill="#5d8efe"/>
  <path id="Path_347" data-name="Path 347" d="M215.332,378.481A2.329,2.329,0,1,0,213,376.153a2.331,2.331,0,0,0,2.329,2.329Zm0-3.6a1.27,1.27,0,1,1-1.27,1.27,1.272,1.272,0,0,1,1.27-1.27Z" transform="translate(-198.092 -347.445)" fill="#5d8efe"/>
  <path id="Path_348" data-name="Path 348" d="M90,199.153a2.329,2.329,0,1,0,2.329-2.329A2.331,2.331,0,0,0,90,199.153Zm2.329-1.27a1.27,1.27,0,1,1-1.27,1.27A1.272,1.272,0,0,1,92.332,197.882Z" transform="translate(-83.772 -182.935)" fill="#5d8efe"/>
  <path id="Path_349" data-name="Path 349" d="M112.332,331.481A2.329,2.329,0,1,0,110,329.153,2.331,2.331,0,0,0,112.332,331.481Zm0-3.6a1.27,1.27,0,1,1-1.27,1.27A1.272,1.272,0,0,1,112.332,327.883Z" transform="translate(-102.36 -303.762)" fill="#5d8efe"/>
  <path id="Path_350" data-name="Path 350" d="M336.223,306.973a.529.529,0,0,0-.09-1.055,2.329,2.329,0,1,0,2.529,2.32c.041-.384-.171-.825-.614-.764a.588.588,0,0,0-.444.764,1.27,1.27,0,1,1-1.38-1.266Z" transform="translate(-310.555 -284.33)" fill="#5d8efe"/>
  <path id="Path_351" data-name="Path 351" d="M170.7,178.191a3.729,3.729,0,0,0,.228,3,3.872,3.872,0,0,0,2.76,1.272h.019a.529.529,0,0,0,.5-.357,3.729,3.729,0,0,0-.228-3,3.873,3.873,0,0,0-2.76-1.272A.528.528,0,0,0,170.7,178.191Zm.9.751a2.414,2.414,0,0,1,1.515.772,2.292,2.292,0,0,1,.2,1.643,2.413,2.413,0,0,1-1.515-.772A2.293,2.293,0,0,1,171.6,178.942Z" transform="translate(-158.571 -165.285)" fill="#5d8efe"/>
  <path id="Path_352" data-name="Path 352" d="M247.522,306.26a3.871,3.871,0,0,0-3.006.445.529.529,0,0,0-.24.582,3.729,3.729,0,0,0,1.833,2.388,2.44,2.44,0,0,0,.91.166,4.575,4.575,0,0,0,2.1-.611.529.529,0,0,0,.24-.582A3.728,3.728,0,0,0,247.522,306.26Zm-1.02,2.433a2.292,2.292,0,0,1-1.063-1.268,2.415,2.415,0,0,1,1.69-.182,2.292,2.292,0,0,1,1.063,1.268A2.414,2.414,0,0,1,246.5,308.693Z" transform="translate(-227.143 -284.495)" fill="#5d8efe"/>
  <path id="Path_353" data-name="Path 353" d="M144.669,266.03a.529.529,0,0,0,.11-.62,3.728,3.728,0,0,0-2.3-1.94,3.872,3.872,0,0,0-2.841,1.079.529.529,0,0,0-.11.62,3.728,3.728,0,0,0,2.3,1.94,2.237,2.237,0,0,0,.366.03A4.16,4.16,0,0,0,144.669,266.03Zm-3.978-.976a2.415,2.415,0,0,1,1.612-.54,2.292,2.292,0,0,1,1.31,1.011,2.415,2.415,0,0,1-1.612.54A2.293,2.293,0,0,1,140.691,265.054Z" transform="translate(-129.748 -244.851)" fill="#5d8efe"/>
  <path id="Path_354" data-name="Path 354" d="M331.767,89a.529.529,0,0,0,.236-.056,3.729,3.729,0,0,0,1.938-2.3,3.872,3.872,0,0,0-1.082-2.84.529.529,0,0,0-.62-.109,3.729,3.729,0,0,0-1.938,2.3,3.872,3.872,0,0,0,1.082,2.84A.529.529,0,0,0,331.767,89Zm-.421-2.833a2.293,2.293,0,0,1,1.01-1.311,2.413,2.413,0,0,1,.542,1.612,2.291,2.291,0,0,1-1.008,1.31A2.385,2.385,0,0,1,331.345,86.166Z" transform="translate(-307.086 -77.732)" fill="#5d8efe"/>
  <path id="Path_355" data-name="Path 355" d="M81,279.412a1.588,1.588,0,1,0,1.588-1.588A1.59,1.59,0,0,0,81,279.412Zm1.588-.529a.529.529,0,1,1-.529.529A.53.53,0,0,1,82.591,278.883Z" transform="translate(-75.407 -258.219)" fill="#5d8efe"/>
  <path id="Path_356" data-name="Path 356" d="M122.591,140A1.588,1.588,0,1,0,121,138.412,1.59,1.59,0,0,0,122.591,140Zm0-2.117a.529.529,0,1,1-.529.529A.53.53,0,0,1,122.591,137.882Z" transform="translate(-112.584 -127.169)" fill="#5d8efe"/>
  <path id="Path_357" data-name="Path 357" d="M389.178,132.412A1.588,1.588,0,1,0,387.591,134,1.59,1.59,0,0,0,389.178,132.412Zm-2.117,0a.529.529,0,1,1,.529.529A.53.53,0,0,1,387.061,132.412Z" transform="translate(-358.884 -121.592)" fill="#5d8efe"/>
  <path id="Path_358" data-name="Path 358" d="M295.591,373.824a1.588,1.588,0,1,0,1.588,1.588A1.59,1.59,0,0,0,295.591,373.824Zm0,2.117a.529.529,0,1,1,.529-.529A.53.53,0,0,1,295.591,375.941Z" transform="translate(-273.376 -347.445)" fill="#5d8efe"/>
  <path id="Path_359" data-name="Path 359" d="M188.591,328A1.588,1.588,0,1,0,187,326.412,1.59,1.59,0,0,0,188.591,328Zm0-2.117a.529.529,0,1,1-.529.529A.53.53,0,0,1,188.591,325.883Z" transform="translate(-173.927 -301.903)" fill="#5d8efe"/>
</svg>
