<svg id="roast-chicken" xmlns="http://www.w3.org/2000/svg" width="40.533" height="36.022" viewBox="0 0 40.533 36.022">
  <path id="Path_360" data-name="Path 360" d="M38.356,64.508H16.048a.594.594,0,0,1,0-1.187H38.356a.991.991,0,0,0,.99-.99.2.2,0,0,0-.2-.2H1.385a.2.2,0,0,0-.2.2.991.991,0,0,0,.99.99h11.5a.594.594,0,0,1,0,1.187H2.177A2.179,2.179,0,0,1,0,62.331a1.387,1.387,0,0,1,.821-1.265,3.975,3.975,0,0,1,3.592-3.3,18.35,18.35,0,0,1,1.032-3.521H4.265a4.015,4.015,0,0,1-2.176,1.017,1.86,1.86,0,0,1-1.527-.729,4.089,4.089,0,0,1,0-4.138,1.86,1.86,0,0,1,1.527-.729,4.016,4.016,0,0,1,2.176,1.017H6.341A2.732,2.732,0,0,0,7.6,50.151a15.647,15.647,0,0,1,10.029-6.972,4.16,4.16,0,0,1-1.3-3.338.594.594,0,0,1,.594-.594A3.94,3.94,0,0,1,20.583,41a3.94,3.94,0,0,1,3.66-1.75.594.594,0,0,1,.594.594c0,2.743-1.511,4.254-4.254,4.254a13.5,13.5,0,0,0-9.41,3.672,8.52,8.52,0,0,1,4.112-1.135,6.369,6.369,0,0,1,6.164,3.943,5.859,5.859,0,0,1-.167,4.688,13.992,13.992,0,0,1,4.095-.3,21.059,21.059,0,0,1,4.386.741,8.558,8.558,0,0,1-1.19-4.372,1.369,1.369,0,0,1,2.337-.971l1.158,1.158a.594.594,0,1,1-.84.84L30.072,51.2a.17.17,0,0,0-.2-.039.173.173,0,0,0-.113.17,7.373,7.373,0,0,0,2.165,5.236l.019.019,1.447,1.447a.594.594,0,0,1-.84.84l-1.389-1.389a17.17,17.17,0,0,0-5.858-1.337c-2.559-.156-4.575.255-5.53,1.129a.992.992,0,0,0-.333.735,1.512,1.512,0,0,0,.462,1.067l1.863,1.863h2.463a4.371,4.371,0,0,1-1.012-3.066.594.594,0,0,1,.594-.594c2.538,0,4.021,1.293,4.228,3.66h7.472a1.757,1.757,0,0,0,1.646-1.1,1.843,1.843,0,0,0,.137-.637q0-.022,0-.044,0-.06,0-.12a1.728,1.728,0,0,0-.521-1.139l-3.881-3.881a.594.594,0,0,1,.84-.84l3.424,3.424a14.105,14.105,0,0,0-2.776-7.3c-2-2.536-5.054-4.167-9.068-4.848a.594.594,0,0,1,.2-1.171c8.409,1.426,12.89,6.828,12.971,15.628a2.99,2.99,0,0,1-.225,1.379,3.073,3.073,0,0,1-.362.645h1.254a1.387,1.387,0,0,1,1.385,1.385,2.18,2.18,0,0,1-2.177,2.177ZM11.938,60.945h8.151l-1.024-1.024a2.742,2.742,0,0,1-.785-1.537,6.8,6.8,0,0,0-2.535.022A6.121,6.121,0,0,0,11.938,60.945Zm-4.7,0h.382a4.372,4.372,0,0,1-1.012-3.066.594.594,0,0,1,.594-.594c2.139,0,3.529.919,4.037,2.624a7.288,7.288,0,0,1,4.27-2.667,7.958,7.958,0,0,1,2.91-.041,2.2,2.2,0,0,1,.553-.795l0,0A4.843,4.843,0,0,0,20.343,51a5.207,5.207,0,0,0-5.058-3.185c-2.376,0-4.312,1.394-5.868,2.514-1.19.857-2.13,1.533-3.077,1.533h-2.3a.594.594,0,0,1-.4-.152,3.372,3.372,0,0,0-1.559-.865c-.6,0-.9.542-.9,1.611s.3,1.611.9,1.611a3.373,3.373,0,0,0,1.559-.865.6.6,0,0,1,.4-.152h2.3a4.238,4.238,0,0,1,2.92,1.6,9.807,9.807,0,0,0,2.721,2,.594.594,0,0,1-.5,1.076A10.949,10.949,0,0,1,8.44,55.509a4.171,4.171,0,0,0-1.728-1.226,14.161,14.161,0,0,0-1.256,4.881,1.783,1.783,0,0,0,1.781,1.781Zm-5.186,0H4.864a2.953,2.953,0,0,1-.6-1.781q0-.084,0-.178a2.8,2.8,0,0,0-2.221,1.959ZM24.44,58.506a2.445,2.445,0,0,0,2.407,2.407A2.445,2.445,0,0,0,24.44,58.506Zm-16.613,0a2.445,2.445,0,0,0,2.407,2.407A2.445,2.445,0,0,0,7.827,58.506ZM23.616,40.468a2.445,2.445,0,0,0-2.407,2.407A2.445,2.445,0,0,0,23.616,40.468Zm-6.066,0a2.445,2.445,0,0,0,2.407,2.407A2.445,2.445,0,0,0,17.55,40.468Zm10.158-1.13a.592.592,0,0,1-.42-.174c-1.829-1.829-1.829-3.843,0-5.672,1.362-1.362,1.362-2.631,0-3.993a.594.594,0,1,1,.84-.84c1.829,1.829,1.829,3.843,0,5.672-1.362,1.362-1.362,2.631,0,3.993a.594.594,0,0,1-.42,1.014Zm-7.125,0a.592.592,0,0,1-.42-.174c-1.829-1.829-1.829-3.843,0-5.672,1.362-1.362,1.362-2.631,0-3.993a.594.594,0,0,1,.84-.84c1.829,1.829,1.829,3.843,0,5.672-1.362,1.362-1.362,2.631,0,3.993a.594.594,0,0,1-.42,1.014Zm-7.125,0a.592.592,0,0,1-.42-.174c-1.829-1.829-1.829-3.843,0-5.672,1.362-1.362,1.362-2.631,0-3.993a.594.594,0,1,1,.84-.84c1.829,1.829,1.829,3.843,0,5.672-1.362,1.362-1.362,2.631,0,3.993a.594.594,0,0,1-.42,1.014Z" transform="translate(0 -28.485)" fill="#5d8efe"/>
</svg>
