<svg xmlns="http://www.w3.org/2000/svg" width="55.652" height="54.693" viewBox="0 0 55.652 54.693">
  <g id="Group_420" data-name="Group 420" transform="translate(-33.982 -1620.677)" opacity="0.247">
    <g id="Group_419" data-name="Group 419" transform="translate(33.982 1620.677)">
      <g id="Group_418" data-name="Group 418">
        <g id="Group_417" data-name="Group 417">
          <g id="burger">
            <path id="Path_34" data-name="Path 34" d="M287.113,46.215a23.4,23.4,0,0,1,9.491,3.6,14.792,14.792,0,0,1,5.492,6.332,1.077,1.077,0,1,0,1.986-.837,16.93,16.93,0,0,0-6.27-7.28,25.559,25.559,0,0,0-10.369-3.944,1.077,1.077,0,0,0-.33,2.13Zm0,0" transform="translate(-254.877 -39.324)" fill="#ef4323"/>
            <path id="Path_35" data-name="Path 35" d="M99.713,126.693a1.077,1.077,0,1,0,.371-1.29A1.1,1.1,0,0,0,99.713,126.693Zm0,0" transform="translate(-88.802 -111.691)" fill="#ef4323"/>
            <path id="Path_36" data-name="Path 36" d="M147.885,89.449a1.077,1.077,0,1,0,.364-1.286A1.1,1.1,0,0,0,147.885,89.449Zm0,0" transform="translate(-131.735 -78.468)" fill="#ef4323"/>
            <path id="Path_37" data-name="Path 37" d="M199.651,126.693a1.077,1.077,0,1,0,.371-1.29A1.1,1.1,0,0,0,199.651,126.693Zm0,0" transform="translate(-177.873 -111.691)" fill="#ef4323"/>
            <path id="Path_38" data-name="Path 38" d="M55.652,34.217a5.473,5.473,0,0,0-3.677-5.152v-2.7a4.68,4.68,0,0,0,.986-.5,4.256,4.256,0,0,0,1.948-3.579A4.2,4.2,0,0,0,54.1,19.8a3.462,3.462,0,0,0,.216-2c-.931-4.944-4.127-9.47-9-12.745A31.612,31.612,0,0,0,27.826,0,31.612,31.612,0,0,0,10.332,5.057c-4.873,3.274-8.069,7.8-9,12.745a3.462,3.462,0,0,0,.454,2.459,4.177,4.177,0,0,0-.515,2.024A4.255,4.255,0,0,0,3.22,25.865a4.739,4.739,0,0,0,.457.267v2.934A5.473,5.473,0,0,0,0,34.217v.219A5.43,5.43,0,0,0,1.753,38.43a4.235,4.235,0,0,0,.629,4.819v3.9a7.583,7.583,0,0,0,7.6,7.549H45.67a7.583,7.583,0,0,0,7.6-7.549V43.738a4.243,4.243,0,0,0,.965-5.646,5.418,5.418,0,0,0,1.417-3.655Zm-2.174,0v.219a3.294,3.294,0,0,1-1.414,2.7,3.347,3.347,0,0,1-1.911.6H33.3l6.931-6.824h9.923A3.317,3.317,0,0,1,53.478,34.217Zm-37-3.3.172.172,1.115,1.107-2.334,2.319-3.622-3.6Zm10.263,7.14-6.669-6.623h0l-.519-.515H37.137l-7.264,7.136v0l0,0L28.3,39.61ZM3.469,18.2c.823-4.372,3.694-8.4,8.082-11.353A29.41,29.41,0,0,1,27.826,2.159,29.41,29.41,0,0,1,44.1,6.846c4.388,2.949,7.258,6.981,8.082,11.353a1.359,1.359,0,0,1-1.329,1.586H4.8A1.359,1.359,0,0,1,3.469,18.2Zm.057,3.51a3.561,3.561,0,0,0,1.272.235H50.854a3.564,3.564,0,0,0,1.726-.447,2.081,2.081,0,0,1,.155.788,2.131,2.131,0,0,1-.986,1.786,2.575,2.575,0,0,1-2.19.3c-.362-.114-.7-.261-1.078-.34a5.914,5.914,0,0,0-1.231-.124,5.982,5.982,0,0,0-3.82,1.317,4.032,4.032,0,0,1-5.132,0,6.2,6.2,0,0,0-7.64,0,4.033,4.033,0,0,1-5.133,0,6.2,6.2,0,0,0-7.64,0,4.032,4.032,0,0,1-5.133,0,5.979,5.979,0,0,0-3.82-1.317,5.535,5.535,0,0,0-2.117.4,2.58,2.58,0,0,1-2.382-.231,2.131,2.131,0,0,1-.986-1.786A2.067,2.067,0,0,1,3.526,21.709Zm2.541,4.938A5.31,5.31,0,0,0,7.7,26.276a3.768,3.768,0,0,1,1.668-.191,3.945,3.945,0,0,1,2.127.9,6.2,6.2,0,0,0,7.64,0,4.033,4.033,0,0,1,5.133,0,6.2,6.2,0,0,0,7.64,0,4.033,4.033,0,0,1,5.133,0,6.2,6.2,0,0,0,7.64,0,3.858,3.858,0,0,1,2.567-.922,3.54,3.54,0,0,1,1.294.235,5.062,5.062,0,0,0,1.256.321v2.134H5.85v-2.1C5.923,26.652,5.994,26.65,6.067,26.647Zm-3.893,7.57a3.317,3.317,0,0,1,3.325-3.3H8.732L14.659,36.8a1.093,1.093,0,0,0,1.537,0l3.1-3.082,4.045,4.018H5.5A3.344,3.344,0,0,1,3.854,37.3a3.3,3.3,0,0,1-1.681-2.868Zm1.451,5.354A5.548,5.548,0,0,0,5.5,39.9h20.02l2.016,2a1.1,1.1,0,0,0,1.534,0L31.105,39.9H50.153a5.564,5.564,0,0,0,1.8-.3,2.78,2.78,0,0,0,.36-.142c.037-.019.09-.061.134-.058.06,0,.076.081.1.129a2.078,2.078,0,0,1,.186.823A2.25,2.25,0,0,1,51.05,42.5a2.59,2.59,0,0,1-1.683-.092,5.524,5.524,0,0,0-2.116-.4,5.978,5.978,0,0,0-3.82,1.317,4.032,4.032,0,0,1-5.133,0,6.2,6.2,0,0,0-7.64,0,4.032,4.032,0,0,1-5.133,0,6.2,6.2,0,0,0-7.64,0,4.032,4.032,0,0,1-5.133,0A5.981,5.981,0,0,0,8.93,42.008a5.523,5.523,0,0,0-2.117.4,2.578,2.578,0,0,1-2.206-.125A2.215,2.215,0,0,1,3.47,40.706a2.116,2.116,0,0,1-.006-.6C3.472,40.044,3.572,39.552,3.625,39.571ZM51.1,47.144a5.414,5.414,0,0,1-5.426,5.389H9.982a5.414,5.414,0,0,1-5.426-5.389V44.583a4.738,4.738,0,0,0,2.774-.07l.056-.019c.084-.029.167-.059.25-.093a3.384,3.384,0,0,1,1.3-.235,3.854,3.854,0,0,1,2.567.922,6.2,6.2,0,0,0,7.641,0,4.033,4.033,0,0,1,5.133,0,6.2,6.2,0,0,0,7.64,0,4.033,4.033,0,0,1,5.132,0,6.2,6.2,0,0,0,7.64,0,3.855,3.855,0,0,1,2.567-.922,3.611,3.611,0,0,1,.962.122c.3.082.579.212.876.3A4.721,4.721,0,0,0,51.1,44.7v2.447Zm0,0" fill="#ef4323"/>
            <path id="Path_39" data-name="Path 39" d="M225.263,89.449a1.077,1.077,0,1,0,.372-1.29A1.1,1.1,0,0,0,225.263,89.449Zm0,0" transform="translate(-200.7 -78.467)" fill="#ef4323"/>
            <path id="Path_40" data-name="Path 40" d="M270.381,133.533a1.077,1.077,0,1,0,.371-1.29A1.1,1.1,0,0,0,270.381,133.533Zm0,0" transform="translate(-240.913 -117.792)" fill="#ef4323"/>
            <path id="Path_41" data-name="Path 41" d="M241.563,39.68a1.078,1.078,0,1,0-.408-1.278A1.1,1.1,0,0,0,241.563,39.68Zm0,0" transform="translate(-214.874 -33.644)" fill="#ef4323"/>
          </g>
        </g>
      </g>
    </g>
  </g>
</svg>
