<svg xmlns="http://www.w3.org/2000/svg" width="75" height="89.399" viewBox="0 0 75 89.399">
  <g id="gas-station" transform="translate(-41.166 1.5)" opacity="0.396">
    <g id="Group_377" data-name="Group 377" transform="translate(42.666)">
      <path id="Path_24" data-name="Path 24" d="M114.138,11.327l-7.2-7.2a1.8,1.8,0,1,0-2.545,2.545L110.32,12.6l-5.927,5.927a1.8,1.8,0,0,0-.527,1.273v5.4a7.207,7.207,0,0,0,7.2,7.2V63a1.8,1.8,0,0,1-3.6,0V59.4a5.406,5.406,0,0,0-5.4-5.4h-1.8V7.2a7.207,7.207,0,0,0-7.2-7.2h-36a7.207,7.207,0,0,0-7.2,7.2V72a7.207,7.207,0,0,0-7.2,7.2v5.4a1.8,1.8,0,0,0,1.8,1.8h61.2a1.8,1.8,0,0,0,1.8-1.8V79.2a7.207,7.207,0,0,0-7.2-7.2V57.6h1.8a1.8,1.8,0,0,1,1.8,1.8V63a5.4,5.4,0,1,0,10.8,0V12.6A1.8,1.8,0,0,0,114.138,11.327ZM93.066,30.633a1.8,1.8,0,0,1-1.8,1.8h-32.4a1.8,1.8,0,0,1-1.8-1.8V9a1.8,1.8,0,0,1,1.8-1.8h32.4a1.8,1.8,0,0,1,1.8,1.8Z" transform="translate(-42.666)" fill="none" stroke="#ef4323" stroke-width="3"/>
    </g>
  </g>
</svg>
