<svg id="Component_4_6" data-name="Component 4 – 6" xmlns="http://www.w3.org/2000/svg" width="40" height="40" viewBox="0 0 40 40">
  <g id="Rectangle_46" data-name="Rectangle 46" fill="#fff" stroke="#ef4323" stroke-width="1">
    <rect width="40" height="40" rx="20" stroke="none"/>
    <rect x="0.5" y="0.5" width="39" height="39" rx="19.5" fill="none"/>
  </g>
  <g id="placeholder" transform="translate(-62 12)">
    <g id="Group_1843" data-name="Group 1843" transform="translate(76)">
      <g id="Group_1842" data-name="Group 1842" transform="translate(0)">
        <path id="Path_318" data-name="Path 318" d="M82.5,0a6.5,6.5,0,0,0-5.53,9.918l5.16,8.315a.542.542,0,0,0,.46.256h0a.542.542,0,0,0,.46-.263l5.028-8.4A6.5,6.5,0,0,0,82.5,0Zm4.653,9.274-4.571,7.633-4.691-7.56a5.42,5.42,0,1,1,9.262-.073Z" transform="translate(-76)" fill="#ef4323"/>
      </g>
    </g>
    <g id="Group_1845" data-name="Group 1845" transform="translate(79.25 3.25)">
      <g id="Group_1844" data-name="Group 1844" transform="translate(0)">
        <path id="Path_319" data-name="Path 319" d="M169.25,90a3.25,3.25,0,1,0,3.25,3.25A3.254,3.254,0,0,0,169.25,90Zm0,5.424a2.174,2.174,0,1,1,2.17-2.174A2.176,2.176,0,0,1,169.25,95.424Z" transform="translate(-166 -90)" fill="#ef4323"/>
      </g>
    </g>
  </g>
</svg>
