<svg id="Group_1610" data-name="Group 1610" xmlns="http://www.w3.org/2000/svg" width="22.445" height="27.626" viewBox="0 0 22.445 27.626">
  <path id="Path_259" data-name="Path 259" d="M59.6,0C52.031,0,48,4.852,48,10.143c0,2.454,1.371,5.513,3.566,6.484.333.15.515.086.589-.223.066-.235.354-1.366.494-1.9a.488.488,0,0,0-.117-.48,6.292,6.292,0,0,1-1.307-3.818c0-3.69,2.934-7.273,7.926-7.273,4.317,0,7.337,2.8,7.337,6.815,0,4.533-2.4,7.668-5.515,7.668a2.469,2.469,0,0,1-2.6-3.029c.492-1.994,1.457-4.139,1.457-5.577a2.142,2.142,0,0,0-2.217-2.357c-1.756,0-3.181,1.739-3.181,4.073a5.807,5.807,0,0,0,.525,2.485S53.22,20.03,52.9,21.34a18.635,18.635,0,0,0,.128,6.121.182.182,0,0,0,.332.085,21.755,21.755,0,0,0,2.859-5.386c.214-.789,1.093-3.989,1.093-3.989a4.773,4.773,0,0,0,4.027,1.92c5.291,0,9.114-4.65,9.114-10.421C70.43,4.139,65.7,0,59.6,0Z" transform="translate(-48.004)"/>
</svg>
