<svg xmlns="http://www.w3.org/2000/svg" width="24.667" height="22.258" viewBox="0 0 24.667 22.258">
  <path id="Path_284" data-name="Path 284" d="M23.7,39.55a.964.964,0,0,0,.964-.964V32.323a3.859,3.859,0,0,0-3.854-3.854H19.35a.963.963,0,0,1-.912-.653l-.292-.856A2.89,2.89,0,0,0,15.41,25H9.254a2.9,2.9,0,0,0-2.719,1.909l-.334.924a.966.966,0,0,1-.906.636H3.854A3.859,3.859,0,0,0,0,32.323V43.4a3.859,3.859,0,0,0,3.854,3.854H20.813A3.859,3.859,0,0,0,24.667,43.4a.964.964,0,0,0-1.927,0,1.929,1.929,0,0,1-1.927,1.927H3.854A1.929,1.929,0,0,1,1.927,43.4V32.323A1.929,1.929,0,0,1,3.854,30.4H5.3a2.9,2.9,0,0,0,2.719-1.909l.334-.924a.966.966,0,0,1,.906-.636H15.41a.963.963,0,0,1,.912.653l.292.856A2.89,2.89,0,0,0,19.35,30.4h1.463a1.929,1.929,0,0,1,1.927,1.927v6.263A.964.964,0,0,0,23.7,39.55Z" transform="translate(0 -25)" fill="#fff"/>
</svg>
