<svg xmlns="http://www.w3.org/2000/svg" width="28" height="28.668" viewBox="0 0 28 28.668">
  <path id="Path_286" data-name="Path 286" d="M33.206,2,31.963.761a2.608,2.608,0,0,0-3.684,0l-.908.908c-.051,0-.1,0-.153,0h-15.5A5.759,5.759,0,0,0,5.968,7.418v15.5a5.759,5.759,0,0,0,5.753,5.752h15.5a5.759,5.759,0,0,0,5.752-5.752V7.418a5.739,5.739,0,0,0-.158-1.335l.394-.394A2.608,2.608,0,0,0,33.206,2ZM30.931,22.915h0a3.718,3.718,0,0,1-3.713,3.713h-15.5a3.718,3.718,0,0,1-3.713-3.713V7.418A3.718,3.718,0,0,1,11.721,3.7H25.335L14.867,14.173a1.019,1.019,0,0,0-.269.478l-1.135,4.62A1.019,1.019,0,0,0,14.7,20.5l4.62-1.135a1.019,1.019,0,0,0,.478-.269L30.931,7.964ZM16.405,15.841l1.721,1.721-2.281.56ZM31.764,4.247,19.729,16.282l-2.044-2.044L29.72,2.2a.567.567,0,0,1,.8,0l1.243,1.243A.567.567,0,0,1,31.764,4.247Z" transform="translate(-5.968 0)" fill="#5d8efe"/>
</svg>
