<svg xmlns="http://www.w3.org/2000/svg" width="26.117" height="21.225" viewBox="0 0 26.117 21.225">
  <path id="twitter" d="M8.3,17.4A15.142,15.142,0,0,0,23.541,2.156q0-.348-.015-.693A10.9,10.9,0,0,0,26.2-1.312a10.691,10.691,0,0,1-3.077.844,5.379,5.379,0,0,0,2.356-2.964,10.747,10.747,0,0,1-3.4,1.3,5.363,5.363,0,0,0-9.131,4.887A15.214,15.214,0,0,1,1.9-2.843,5.346,5.346,0,0,0,1.174-.15,5.354,5.354,0,0,0,3.558,4.31a5.317,5.317,0,0,1-2.427-.67c0,.023,0,.044,0,.068a5.36,5.36,0,0,0,4.3,5.253,5.378,5.378,0,0,1-1.413.188,5.325,5.325,0,0,1-1.007-.1,5.364,5.364,0,0,0,5.006,3.722A10.75,10.75,0,0,1,1.36,15.069a10.9,10.9,0,0,1-1.278-.074A15.168,15.168,0,0,0,8.3,17.4" transform="translate(-0.082 3.824)"/>
</svg>
