<svg xmlns="http://www.w3.org/2000/svg" width="16.999" height="20.726" viewBox="0 0 16.999 20.726">
  <g id="apple" transform="translate(-46.022)">
    <path id="Path_253" data-name="Path 253" d="M51.658,133.909c-3.085-.018-5.636-6.315-5.636-9.521,0-5.238,3.93-6.385,5.444-6.385a6.264,6.264,0,0,1,2.054.505,4.591,4.591,0,0,0,1.173.336,3.65,3.65,0,0,0,.841-.273,6.744,6.744,0,0,1,2.536-.613h.006a5.2,5.2,0,0,1,4.35,2.2l.317.477-.457.345a3.842,3.842,0,0,0-1.842,3.168,3.576,3.576,0,0,0,2,3.306c.286.172.582.349.582.737,0,.253-2.021,5.69-4.955,5.69a3.985,3.985,0,0,1-1.673-.406,3.393,3.393,0,0,0-1.49-.359,3.831,3.831,0,0,0-1.179.319,5.777,5.777,0,0,1-2.046.477Z" transform="translate(0 -113.183)" fill="#fff"/>
    <path id="Path_254" data-name="Path 254" d="M259.048,0c.076,2.756-1.894,4.668-3.863,4.548A4.391,4.391,0,0,1,259.048,0Z" transform="translate(-200.667)" fill="#fff"/>
  </g>
</svg>
