<svg id="facebook-logo_1_" data-name="facebook-logo (1)" xmlns="http://www.w3.org/2000/svg" width="10.514" height="19.446" viewBox="0 0 10.514 19.446">
  <path id="Path_252" data-name="Path 252" d="M32.195,0,29.673,0a4.429,4.429,0,0,0-4.664,4.786V6.992H22.474a.4.4,0,0,0-.4.4v3.2a.4.4,0,0,0,.4.4h2.536V19.05a.4.4,0,0,0,.4.4h3.308a.4.4,0,0,0,.4-.4V10.983h2.965a.4.4,0,0,0,.4-.4v-3.2a.4.4,0,0,0-.4-.4H29.11V5.122c0-.9.214-1.355,1.385-1.355h1.7a.4.4,0,0,0,.4-.4V.4A.4.4,0,0,0,32.195,0Z" transform="translate(-22.077)" fill="#fff"/>
</svg>
