<svg id="Icon_ionic-logo-apple" data-name="Icon ionic-logo-apple" xmlns="http://www.w3.org/2000/svg" width="21.565" height="25.883" viewBox="0 0 21.565 25.883">
  <path id="Path_3" data-name="Path 3" d="M22.761,10.821c-2.264,0-3.221,1.034-4.8,1.034-1.617,0-2.85-1.027-4.811-1.027a6.623,6.623,0,0,0-5.27,3.032c-1.826,2.694-1.516,7.768,1.442,12.091,1.058,1.547,2.473,3.283,4.326,3.3h.034c1.611,0,2.089-1.009,4.306-1.021h.034c2.183,0,2.621,1.015,4.225,1.015h.034c1.853-.019,3.342-1.942,4.4-3.483a16.739,16.739,0,0,0,1.631-2.919,5.2,5.2,0,0,1-.735-9.579,6.482,6.482,0,0,0-4.818-2.443Z" transform="translate(-6.748 -3.37)" fill="#de3e20"/>
  <path id="Path_4" data-name="Path 4" d="M23.9,4.5a7.249,7.249,0,0,0-4.725,2.619,6.593,6.593,0,0,0-1.542,5.04h.133a6.153,6.153,0,0,0,4.625-2.495A7.06,7.06,0,0,0,23.9,4.5Z" transform="translate(-7.956 -4.5)" fill="#de3e20"/>
</svg>
