<svg xmlns="http://www.w3.org/2000/svg" width="54" height="54" viewBox="0 0 54 54">
  <g id="Group_344" data-name="Group 344" transform="translate(0.164)">
    <circle id="Ellipse_23" data-name="Ellipse 23" cx="27" cy="27" r="27" transform="translate(-0.164)" fill="#1a237e"/>
    <g id="Group_337" data-name="Group 337" transform="translate(7 9)">
      <g id="Icon_feather-shopping-bag" data-name="Icon feather-shopping-bag" transform="translate(8.281 4.542)">
        <path id="Path_10" data-name="Path 10" d="M8.651,3,4.5,8.535V27.907a2.767,2.767,0,0,0,2.767,2.767H26.639a2.767,2.767,0,0,0,2.767-2.767V8.535L25.256,3Z" transform="translate(-4.5 -3)" fill="none" stroke="#fff" stroke-linecap="round" stroke-linejoin="round" stroke-width="3"/>
        <path id="Path_11" data-name="Path 11" d="M4.5,9H29.407" transform="translate(-4.5 -3.465)" fill="none" stroke="#fff" stroke-linecap="round" stroke-linejoin="round" stroke-width="3"/>
        <path id="Path_12" data-name="Path 12" d="M23.07,15A5.535,5.535,0,0,1,12,15" transform="translate(-5.081 -3.93)" fill="none" stroke="#fff" stroke-linecap="round" stroke-linejoin="round" stroke-width="3"/>
      </g>
      <circle id="Ellipse_11" data-name="Ellipse 11" cx="8.5" cy="8.5" r="8.5" transform="translate(-0.163 0)" fill="#fff"/>
      <text id="_5" data-name="5" transform="translate(7.836 12)" fill="#ef4323" font-size="12" font-family="Helvetica-Bold, Helvetica" font-weight="700"><tspan x="-3.337" y="0">5</tspan></text>
    </g>
  </g>
</svg>
