<svg xmlns="http://www.w3.org/2000/svg" width="30.849" height="26.064" viewBox="0 0 30.849 26.064">
  <path id="Icon_metro-google-plus" data-name="Icon metro-google-plus" d="M19.413,3.856H11.341c-3.619,0-7.024,2.742-7.024,5.917a5.834,5.834,0,0,0,6.148,5.864c.256,0,.5-.005.748-.023a3.29,3.29,0,0,0-.41,1.508,3.135,3.135,0,0,0,1.1,2.23c-.464,0-.911.013-1.4.013-4.482,0-7.932,2.855-7.932,5.815,0,2.915,3.782,4.739,8.264,4.739,5.11,0,7.932-2.9,7.932-5.815a5.629,5.629,0,0,0-2.822-5.246c-.73-.516-2.125-1.772-2.125-2.511,0-.865.247-1.291,1.549-2.309a5.418,5.418,0,0,0,2.28-4.215c0-2.031-.9-4.01-2.6-4.663h2.559ZM16.594,23.6a3.6,3.6,0,0,1,.1.832c0,2.356-1.518,4.2-5.874,4.2-3.1,0-5.336-1.961-5.336-4.317,0-2.309,2.775-4.231,5.873-4.2a6.74,6.74,0,0,1,2.008.322c1.682,1.17,2.888,1.83,3.229,3.163Zm-4.961-8.787c-2.08-.062-4.056-2.326-4.415-5.057S8.253,4.937,10.333,5s4.056,2.254,4.415,4.985S13.712,14.877,11.633,14.815Zm16-5.175V3.856H25.707V9.64H19.923v1.928h5.784v5.784h1.928V11.568h5.784V9.64Z" transform="translate(-2.571 -3.856)" fill="#fff"/>
</svg>
