<svg xmlns="http://www.w3.org/2000/svg" width="54" height="54" viewBox="0 0 54 54">
  <g id="Group_345" data-name="Group 345" transform="translate(0.164)">
    <circle id="Ellipse_15" data-name="Ellipse 15" cx="27" cy="27" r="27" transform="translate(-0.164)" fill="#1a237e"/>
    <path id="man" d="M29.5,28.745l-.738-2.951a4.285,4.285,0,0,0-2.809-3.048l-5.41-1.8c-1.319-.55-1.923-2.674-2.053-3.481a5.112,5.112,0,0,0,1.807-3.323,1,1,0,0,1,.149-.633.615.615,0,0,0,.422-.369,9.189,9.189,0,0,0,.659-2.686A.591.591,0,0,0,21.5,10.3a1.581,1.581,0,0,0-.6-.9V6.147c0-1.981-.6-2.793-1.242-3.264C19.545,1.929,18.523,0,14.761,0A6.411,6.411,0,0,0,8.614,6.148V9.407a1.581,1.581,0,0,0-.6.9A.591.591,0,0,0,8,10.451a9.19,9.19,0,0,0,.659,2.688.523.523,0,0,0,.369.353c.069.034.2.213.2.648a5.111,5.111,0,0,0,1.817,3.33c-.129.805-.729,2.929-2.011,3.465L3.573,22.746A4.285,4.285,0,0,0,.764,25.791L.027,28.742a.615.615,0,0,0,.6.766H28.9a.615.615,0,0,0,.6-.764Z" transform="translate(12.622 12.193)" fill="#fff"/>
  </g>
</svg>
