<svg xmlns="http://www.w3.org/2000/svg" width="32.03" height="30.657" viewBox="0 0 32.03 30.657">
  <path id="Icon_awesome-star" data-name="Icon awesome-star" d="M15.738,1.066l-3.91,7.927L3.082,10.268a1.917,1.917,0,0,0-1.06,3.269L8.35,19.7l-1.5,8.711a1.915,1.915,0,0,0,2.778,2.018l7.825-4.113,7.825,4.113a1.916,1.916,0,0,0,2.778-2.018l-1.5-8.711,6.328-6.167a1.917,1.917,0,0,0-1.06-3.269L23.084,8.992l-3.91-7.927a1.917,1.917,0,0,0-3.437,0Z" transform="translate(-1.441 0.001)" fill="#ffba00"/>
</svg>
