<svg xmlns="http://www.w3.org/2000/svg" width="15.667" height="18.568" viewBox="0 0 15.667 18.568">
  <g id="add-to-basket" transform="translate(-40)">
    <path id="Path_257" data-name="Path 257" d="M55.667,16.392a.725.725,0,0,1-.725.725h-.725v.725a.725.725,0,1,1-1.451,0v-.725H52.04a.725.725,0,1,1,0-1.451h.725v-.725a.725.725,0,0,1,1.451,0v.725h.725A.725.725,0,0,1,55.667,16.392Zm0-11.315V12.04a.725.725,0,0,1-1.451,0V5.8H52.765V7.978a.725.725,0,0,1-1.451,0V5.8H44.352V7.978a.725.725,0,1,1-1.451,0V5.8H41.451V17.117h7.688a.725.725,0,1,1,0,1.451H40.725A.725.725,0,0,1,40,17.843V5.077a.725.725,0,0,1,.725-.725h2.21a4.932,4.932,0,0,1,9.8,0h2.21A.725.725,0,0,1,55.667,5.077Zm-4.4-.725a3.482,3.482,0,0,0-6.866,0Z" fill="#f9f9f9"/>
  </g>
</svg>
